<?xml version="1.0" standalone="no"?>
<!DOCTYPE svg PUBLIC "-//W3C//DTD SVG 20010904//EN"
 "http://www.w3.org/TR/2001/REC-SVG-20010904/DTD/svg10.dtd">
<svg version="1.0" xmlns="http://www.w3.org/2000/svg"
 width="100.000000pt" height="50.000000pt" viewBox="0 0 100.000000 50.000000"
 preserveAspectRatio="xMidYMid meet">

<g transform="translate(0.000000,50.000000) scale(0.100000,-0.100000)"
fill="#000000" stroke="none">
<path d="M270 407 c0 -34 7 -50 19 -42 10 6 0 75 -10 75 -5 0 -9 -15 -9 -33z"/>
<path d="M450 425 c0 -15 -13 -19 -62 -15 -22 1 -28 -3 -28 -19 0 -17 6 -20
50 -19 l50 0 0 34 c0 19 -2 34 -5 34 -3 0 -5 -7 -5 -15z m-5 -35 c3 -5 1 -10
-4 -10 -6 0 -11 5 -11 10 0 6 2 10 4 10 3 0 8 -4 11 -10z"/>
<path d="M22 398 c2 -27 7 -32 23 -30 11 2 23 8 26 13 3 6 11 3 18 -5 16 -19
41 -10 41 14 0 21 -23 33 -37 19 -6 -6 -14 -4 -23 6 -7 8 -21 15 -32 15 -16 0
-19 -6 -16 -32z m33 2 c0 -7 -6 -15 -12 -17 -8 -3 -13 4 -13 17 0 13 5 20 13
18 6 -3 12 -11 12 -18z"/>
<path d="M310 404 c-10 -11 -10 -17 0 -28 15 -19 40 -10 40 14 0 24 -25 33
-40 14z"/>
<path d="M673 413 c-7 -3 -13 -14 -12 -26 0 -15 2 -17 6 -7 3 8 11 18 17 22
13 9 5 17 -11 11z"/>
<path d="M713 413 c-18 -7 -16 -40 3 -47 21 -8 21 -8 27 14 6 21 -11 40 -30
33z"/>
<path d="M761 399 c-10 -26 0 -45 18 -35 11 7 10 40 -2 52 -4 4 -11 -4 -16
-17z"/>
<path d="M951 411 c-17 -11 -10 -45 10 -49 20 -4 32 33 15 47 -6 5 -18 6 -25
2z"/>
<path d="M140 400 c1 -28 56 -38 63 -12 4 15 5 15 6 0 0 -10 6 -18 11 -18 6 0
10 8 10 18 1 15 2 15 15 -2 15 -19 15 -19 15 2 0 21 -4 22 -60 20 -33 -1 -60
-5 -60 -8z"/>
<path d="M493 390 c-2 -25 14 -27 20 -2 4 16 5 16 6 0 0 -10 5 -18 10 -18 5 0
12 8 14 18 4 16 5 16 6 0 1 -23 21 -23 21 -1 0 25 18 3 22 -26 3 -23 4 -22 19
10 l16 34 -66 3 c-60 2 -67 0 -68 -18z"/>
<path d="M802 393 c2 -10 13 -19 26 -21 17 -3 22 2 22 17 0 25 -17 28 -23 4
-4 -17 -5 -17 -6 0 0 9 -6 17 -12 17 -6 0 -9 -8 -7 -17z"/>
<path d="M861 388 c0 -13 3 -17 6 -10 2 6 9 12 14 12 6 0 7 -4 4 -10 -3 -5 -2
-10 4 -10 5 0 12 8 14 18 4 16 5 16 6 0 1 -25 21 -23 21 2 0 16 -7 20 -35 20
-30 0 -35 -3 -34 -22z"/>
</g>
</svg>
