<svg xmlns="http://www.w3.org/2000/svg"  viewBox="0 0 24 24" width="24px" height="24px"><path fill="#60AE44" d="M9.807,24c2.384-0.008,4.345-1.974,4.342-4.358c0-2.41-1.963-4.336-4.408-4.326	c-2.348,0.01-4.333,2.01-4.309,4.34C5.456,22.035,7.442,24.008,9.807,24L9.807,24z"/><path fill="#54973B" d="M9.759,15.316c-0.006,0-0.012,0-0.018,0c-2.348,0.01-4.333,2.01-4.309,4.34c0.024,2.372,2,4.34,4.355,4.344	h0.02c0.053,0,0.105-0.001,0.157-0.003v-8.676C9.896,15.318,9.827,15.316,9.759,15.316L9.759,15.316z"/><path fill="#60AE44" d="M6.063,5.678c1.559,0.009,2.85-1.276,2.85-2.839c0-1.531-1.27-2.816-2.806-2.84	C4.565-0.021,3.244,1.269,3.219,2.82C3.195,4.351,4.51,5.672,6.063,5.678L6.063,5.678z"/><path fill="#54973B" d="M6,0.001C4.504,0.039,3.243,1.305,3.219,2.82C3.195,4.33,4.474,5.636,6,5.677V0.001L6,0.001z"/><path fill="#60AE44" d="M12.035,8.319c-0.016,2.982,2.353,5.392,5.308,5.407c2.989,0.012,5.394-2.351,5.407-5.309	c0.013-2.929-2.372-5.341-5.307-5.364C14.501,3.032,12.049,5.419,12.035,8.319L12.035,8.319z"/><path fill="#54973B" d="M17.403,3.053c-2.924,0-5.354,2.378-5.368,5.266c-0.016,2.982,2.353,5.392,5.308,5.407	c0.007,0,0.015,0,0.022,0c0.08,0,0.161-0.002,0.24-0.005V3.057c-0.054-0.002-0.108-0.003-0.163-0.004	C17.43,3.053,17.416,3.053,17.403,3.053L17.403,3.053z"/><path fill="#1C88BC" d="M3.04,5.019c-2.516,3.673-2.37,8.679,0.374,12.185c0.493,0.631,1.029,1.219,1.695,1.71	c0.753-3.208,3.405-4.251,5.536-3.888c2.601,0.441,4.015,2.601,3.77,5.787c3.527-0.431,7.952-5.65,7.516-8.865	c-2.705,2.356-5.016,2.779-7.443,1.36c-2.146-1.255-3.205-3.721-2.662-6.197c0.589-2.68,2.513-4.085,6.217-4.467	c-2.81-2.002-5.782-2.619-9.043-1.823C8.576,0.923,8.757,1.082,8.872,1.294c0.789,1.447,0.385,3.207-0.944,4.151	C6.599,6.39,4.792,6.2,3.696,4.955C3.373,4.588,3.269,4.686,3.04,5.019L3.04,5.019z M17.21,14.702	c0.486-0.011,0.866,0.356,0.865,0.841c0.001,0.455-0.362,0.822-0.824,0.832c-0.484,0.011-0.875-0.367-0.868-0.84	C16.388,15.073,16.747,14.713,17.21,14.702L17.21,14.702z M15.73,16.479c0.48,0.004,0.853,0.393,0.835,0.875	c-0.015,0.462-0.37,0.792-0.852,0.791c-0.496-0.004-0.859-0.375-0.841-0.859C14.89,16.841,15.276,16.478,15.73,16.479L15.73,16.479z M12.815,2.095c0.464-0.022,0.873,0.365,0.883,0.835c0.009,0.456-0.348,0.827-0.809,0.844c-0.508,0.016-0.864-0.32-0.869-0.818	C12.015,2.479,12.349,2.118,12.815,2.095L12.815,2.095z M10.699,1.349c0.463,0.013,0.816,0.376,0.816,0.837	c-0.001,0.448-0.373,0.826-0.826,0.838c-0.47,0.012-0.87-0.38-0.868-0.85C9.822,1.693,10.205,1.334,10.699,1.349L10.699,1.349z M7.685,14.312c-0.002,0.453-0.372,0.813-0.839,0.821c-0.501,0.008-0.859-0.345-0.853-0.838c0.006-0.46,0.372-0.832,0.822-0.836	C7.284,13.455,7.688,13.851,7.685,14.312L7.685,14.312z M6.513,12.193c-0.018,0.468-0.385,0.812-0.849,0.797	c-0.479-0.013-0.839-0.409-0.816-0.891c0.023-0.46,0.397-0.807,0.862-0.798C6.189,11.312,6.533,11.693,6.513,12.193L6.513,12.193z M5.194,10.583C4.72,10.59,4.328,10.202,4.331,9.729c0.003-0.451,0.376-0.824,0.832-0.835C5.625,8.882,5.99,9.229,6.01,9.696	C6.029,10.185,5.672,10.574,5.194,10.583L5.194,10.583z M5.055,6.629C5.536,6.637,5.91,7.03,5.889,7.505	C5.87,7.957,5.49,8.31,5.027,8.303c-0.461-0.006-0.823-0.365-0.83-0.826C4.19,6.993,4.567,6.621,5.055,6.629L5.055,6.629z"/><path fill="#1876A4" d="M6.83,15.133c-0.492,0-0.843-0.35-0.838-0.838c0.006-0.46,0.372-0.832,0.822-0.836c0.002,0,0.004,0,0.007,0	c0.468,0,0.868,0.394,0.864,0.853c-0.002,0.453-0.372,0.813-0.839,0.821C6.84,15.133,6.835,15.133,6.83,15.133L6.83,15.133z M5.694,12.991c-0.01,0-0.02,0-0.03,0c-0.479-0.013-0.839-0.409-0.816-0.891c0.023-0.454,0.388-0.798,0.844-0.798	c0.006,0,0.011,0,0.017,0c0.48,0.011,0.824,0.392,0.803,0.892C6.495,12.651,6.144,12.991,5.694,12.991L5.694,12.991z M5.181,10.583	c-0.469,0-0.853-0.385-0.85-0.854c0.003-0.451,0.376-0.824,0.832-0.835c0.008,0,0.015,0,0.023,0c0.451,0,0.805,0.343,0.824,0.803	c0.019,0.489-0.338,0.878-0.816,0.886C5.19,10.583,5.186,10.583,5.181,10.583L5.181,10.583z M5.041,8.303c-0.005,0-0.009,0-0.014,0	c-0.461-0.006-0.823-0.365-0.83-0.826C4.19,6.998,4.56,6.629,5.04,6.629c0.005,0,0.01,0,0.015,0C5.536,6.637,5.91,7.03,5.889,7.505	C5.87,7.953,5.498,8.303,5.041,8.303L5.041,8.303z M10.609,0.541c-0.529,0.054-1.066,0.148-1.61,0.281	C8.576,0.923,8.757,1.082,8.872,1.294c0.789,1.447,0.385,3.207-0.944,4.151C7.366,5.844,6.719,6.041,6.077,6.041	c-0.878,0-1.747-0.367-2.38-1.086C3.553,4.792,3.453,4.721,3.366,4.721c-0.109,0-0.198,0.113-0.325,0.297	c-2.516,3.673-2.37,8.679,0.374,12.185c0.493,0.631,1.029,1.219,1.695,1.71c0.658-2.807,2.772-3.956,4.717-3.956	c0.266,0,0.527,0.021,0.783,0.063V3.021C10.174,2.99,9.819,2.617,9.82,2.174c0.002-0.451,0.339-0.795,0.789-0.824V0.541	L10.609,0.541z"/></svg>