<svg xmlns="http://www.w3.org/2000/svg"  viewBox="0 0 64 64" width="64px" height="64px"><linearGradient id="Q3NcfoPugaIdVVx0oSDaNa" x1="32" x2="32" y1="5.167" y2="58.908" gradientUnits="userSpaceOnUse" spreadMethod="reflect"><stop offset="0" stop-color="#1a6dff"/><stop offset="1" stop-color="#c822ff"/></linearGradient><path fill="url(#Q3NcfoPugaIdVVx0oSDaNa)" d="M34.999,58h-6C27.346,58,26,56.654,26,55V26h-6.032c-0.728,0-1.392-0.408-1.734-1.066 c-0.356-0.685-0.304-1.501,0.137-2.131L29.236,7.256c0.547-0.782,1.396-1.24,2.329-1.256c0.016,0,0.032,0,0.048,0 c0.913,0,1.756,0.427,2.316,1.176L45.59,22.749c0.469,0.627,0.542,1.453,0.189,2.156C45.442,25.58,44.772,26,44.031,26H38v29 C38,56.654,36.654,58,34.999,58z M31.612,8c-0.005,0-0.01,0-0.015,0c-0.167,0.003-0.482,0.059-0.723,0.402L20.009,23.949L28,24v31 c0,0.552,0.449,1,0.999,1h6C35.551,56,36,55.552,36,55V24h8.031L32.329,8.375C32.086,8.052,31.781,8,31.612,8z"/><linearGradient id="Q3NcfoPugaIdVVx0oSDaNb" x1="32" x2="32" y1="11.5" y2="55.372" gradientUnits="userSpaceOnUse" spreadMethod="reflect"><stop offset="0" stop-color="#6dc7ff"/><stop offset="1" stop-color="#e6abff"/></linearGradient><path fill="url(#Q3NcfoPugaIdVVx0oSDaNb)" d="M32.608,12.422l6.279,8.659C39.156,21.454,38.913,22,38.478,22H34v31c0,0.552-0.448,1-1,1h-2 c-0.552,0-1-0.448-1-1V22h-4.479c-0.427,0-0.673-0.529-0.419-0.903l5.853-8.648C31.347,11.869,32.197,11.855,32.608,12.422z"/></svg>